<?xml version="1.0" encoding="UTF-8"?>
<svg xmlns="http://www.w3.org/2000/svg" viewBox="0 0 1024 1024" width="1024" height="1024" role="img" aria-label="Open Cognition">
  <title>Open Cognition</title>
  <desc>Mark: 7 cross-disciplinary nodes radiating to an open O at the centre, with a golden insight point at the top.</desc>

  <!-- ── 放射连接线（节点→中心 O） ── -->
  <g stroke="#1a1a1a" stroke-width="2.4" stroke-opacity="0.22" stroke-linecap="round" fill="none">
    <line x1="512" y1="512" x2="512" y2="152"/>
    <line x1="512" y1="512" x2="766.56" y2="257.44"/>
    <line x1="512" y1="512" x2="872"    y2="512"/>
    <line x1="512" y1="512" x2="766.56" y2="766.56"/>
    <line x1="512" y1="512" x2="512"    y2="872"/>
    <line x1="512" y1="512" x2="257.44" y2="766.56"/>
    <line x1="512" y1="512" x2="152"    y2="512"/>
    <line x1="512" y1="512" x2="257.44" y2="257.44"/>
  </g>

  <!-- ── 跨学科互链（节点之间的隐含网络，淡色） ── -->
  <g stroke="#1a1a1a" stroke-width="1.6" stroke-opacity="0.12" stroke-linecap="round" fill="none">
    <path d="M 257.44 257.44 Q 512 200 766.56 257.44"/>
    <path d="M 766.56 257.44 Q 920 512 766.56 766.56"/>
    <path d="M 766.56 766.56 Q 512 920 257.44 766.56"/>
    <path d="M 257.44 766.56 Q 104 512 257.44 257.44"/>
  </g>

  <!-- ── 中心：开放的 O（开口朝上，对应顶部金点） ── -->
  <!-- 主体大弧：从左上 (478.35, 386.42) 顺时针经下方到右上 (545.65, 386.42) -->
  <path d="M 478.35 386.42 A 130 130 0 1 1 545.65 386.42"
        stroke="#1a1a1a" stroke-width="34" fill="none" stroke-linecap="round"/>
  <!-- 黄色高亮（O 的下方 1/3 弧，体现项目高亮色） -->
  <path d="M 410.18 593.50 A 130 130 0 0 0 613.82 593.50"
        stroke="#f4d03f" stroke-width="14" fill="none" stroke-linecap="round" stroke-opacity="0.95"/>

  <!-- ── 顶部金色"洞见点" ── -->
  <circle cx="512" cy="152" r="36" fill="#f4d03f" stroke="#1a1a1a" stroke-width="6"/>
  <circle cx="500" cy="142" r="9"  fill="#ffffff" fill-opacity="0.55"/>

  <!-- ── 7 个领域节点（环绕） ── -->
  <!-- 哲学 Philosophy · 紫 -->
  <circle cx="257.44" cy="257.44" r="40" fill="#8b5cf6" stroke="#1a1a1a" stroke-width="5"/>
  <!-- 认知系统工程 CSE · 青 -->
  <circle cx="766.56" cy="257.44" r="40" fill="#06b6d4" stroke="#1a1a1a" stroke-width="5"/>
  <!-- 宗教 Religion · 橙 -->
  <circle cx="152" cy="512" r="40" fill="#f59e0b" stroke="#1a1a1a" stroke-width="5"/>
  <!-- 美学 Aesthetics · 粉 -->
  <circle cx="872" cy="512" r="40" fill="#ec4899" stroke="#1a1a1a" stroke-width="5"/>
  <!-- 社会学 Sociology · 蓝 -->
  <circle cx="257.44" cy="766.56" r="40" fill="#3b82f6" stroke="#1a1a1a" stroke-width="5"/>
  <!-- 伦理学与政治哲学 · 红 -->
  <circle cx="766.56" cy="766.56" r="40" fill="#ef4444" stroke="#1a1a1a" stroke-width="5"/>
  <!-- 心理学 Psychology · 绿 -->
  <circle cx="512" cy="872" r="40" fill="#10b981" stroke="#1a1a1a" stroke-width="5"/>

  <!-- ── 节点白色高光（手绘质感） ── -->
  <g fill="#ffffff" fill-opacity="0.45">
    <circle cx="247" cy="247" r="9"/>
    <circle cx="756" cy="247" r="9"/>
    <circle cx="142" cy="502" r="9"/>
    <circle cx="862" cy="502" r="9"/>
    <circle cx="247" cy="756" r="9"/>
    <circle cx="756" cy="756" r="9"/>
    <circle cx="502" cy="862" r="9"/>
  </g>
</svg>
